<?xml version="1.0" encoding="UTF-8" standalone="no"?>
<svg
   xmlns:dc="http://purl.org/dc/elements/1.1/"
   xmlns:cc="http://creativecommons.org/ns#"
   xmlns:rdf="http://www.w3.org/1999/02/22-rdf-syntax-ns#"
   xmlns:svg="http://www.w3.org/2000/svg"
   xmlns="http://www.w3.org/2000/svg"
   xmlns:sodipodi="http://sodipodi.sourceforge.net/DTD/sodipodi-0.dtd"
   xmlns:inkscape="http://www.inkscape.org/namespaces/inkscape"
   sodipodi:docname="WebsiteLogo5.svg"
   inkscape:version="1.0rc1 (09960d6, 2020-04-09)"
   id="svg3712"
   version="1.1"
   viewBox="0 0 48.557606 60.487957"
   height="60.487957mm"
   width="48.557606mm">
  <defs
     id="defs3706" />
  <sodipodi:namedview
     fit-margin-bottom="5"
     fit-margin-right="5"
     fit-margin-left="5"
     fit-margin-top="5"
     inkscape:window-maximized="0"
     inkscape:window-y="23"
     inkscape:window-x="0"
     inkscape:window-height="1174"
     inkscape:window-width="1252"
     showgrid="false"
     inkscape:document-rotation="0"
     inkscape:current-layer="layer1"
     inkscape:document-units="mm"
     inkscape:cy="145.73652"
     inkscape:cx="103.19096"
     inkscape:zoom="1"
     inkscape:pageshadow="2"
     inkscape:pageopacity="0.0"
     borderopacity="1.0"
     bordercolor="#666666"
     pagecolor="#ffffff"
     id="base" />
  <metadata
     id="metadata3709">
    <rdf:RDF>
      <cc:Work
         rdf:about="">
        <dc:format>image/svg+xml</dc:format>
        <dc:type
           rdf:resource="http://purl.org/dc/dcmitype/StillImage" />
        <dc:title></dc:title>
      </cc:Work>
    </rdf:RDF>
  </metadata>
  <g
     transform="translate(-78.530725,-109.60722)"
     id="layer1"
     inkscape:groupmode="layer"
     inkscape:label="Layer 1">
    <path
       style="fill:#000000;stroke:#000000;stroke-width:0.25;stroke-linecap:square"
       id="path1443-5-3"
       sodipodi:type="arc"
       sodipodi:cx="93.407951"
       sodipodi:cy="155.40923"
       sodipodi:rx="9.5590582"
       sodipodi:ry="9.5590572"
       sodipodi:start="1.350786"
       sodipodi:end="1.3331394"
       sodipodi:arc-type="arc"
       d="m 95.494117,164.73786 a 9.5590582,9.5590572 0 0 1 -11.40551,-7.20133 9.5590582,9.5590572 0 0 1 7.150951,-11.43717 9.5590582,9.5590572 0 0 1 11.468602,7.10042 9.5590582,9.5590572 0 0 1 -7.049757,11.49982"
       sodipodi:open="true" />
    <path
       sodipodi:open="true"
       d="m 114.48846,164.71998 a 9.5590582,9.5590572 0 0 1 -11.40551,-7.20134 9.5590582,9.5590572 0 0 1 7.15095,-11.43717 9.5590582,9.5590572 0 0 1 11.4686,7.10043 9.5590582,9.5590572 0 0 1 -7.04976,11.49982"
       sodipodi:arc-type="arc"
       sodipodi:end="1.3331394"
       sodipodi:start="1.350786"
       sodipodi:ry="9.5590572"
       sodipodi:rx="9.5590582"
       sodipodi:cy="155.39134"
       sodipodi:cx="112.40229"
       sodipodi:type="arc"
       id="path1443-9-6-2"
       style="fill:#000000;stroke:#000000;stroke-width:0.25;stroke-linecap:square" />
    <path
       style="fill:#000000;stroke:#000000;stroke-width:0.264583px;stroke-linecap:butt;stroke-linejoin:miter;stroke-opacity:1"
       d="m 84.260624,153.64584 -0.18562,-38.79306 h 10.57981 c 0,0 -3.80807,2.20525 -5.3827,3.71226 -1.07237,1.02632 -2.16277,2.16251 -2.68654,3.55139 -3.71848,9.86049 -2.32495,31.52941 -2.32495,31.52941"
       id="path1483-9-4"
       inkscape:connector-curvature="0"
       sodipodi:nodetypes="cccssc" />
    <path
       style="fill:none;stroke:#000000;stroke-width:0.264583px;stroke-linecap:butt;stroke-linejoin:miter;stroke-opacity:1"
       d="M 112.61876,114.85278 Z"
       id="path1485-1-3"
       inkscape:connector-curvature="0" />
    <path
       sodipodi:nodetypes="cccssc"
       inkscape:connector-curvature="0"
       id="path1483-5-8-3"
       d="m 121.66587,153.43621 0.0922,-22.15653 h -5.25598 c 0,0 1.89184,1.25952 2.6741,2.12024 0.53275,0.58618 1.07446,1.23511 1.33465,2.02837 1.84731,5.63179 1.15502,18.00792 1.15502,18.00792"
       style="fill:#000000;stroke:#000000;stroke-width:0.140936px;stroke-linecap:butt;stroke-linejoin:miter;stroke-opacity:1" />
    <path
       style="fill:#000000;stroke:#000000;stroke-width:0.25;stroke-linecap:square"
       id="path1443-9-8-1-5"
       sodipodi:type="arc"
       sodipodi:cx="93.876625"
       sodipodi:cy="124.29323"
       sodipodi:rx="9.5590582"
       sodipodi:ry="9.5590572"
       sodipodi:start="1.350786"
       sodipodi:end="1.3331394"
       sodipodi:arc-type="arc"
       d="m 95.962791,133.62187 a 9.5590582,9.5590572 0 0 1 -11.405511,-7.20134 9.5590582,9.5590572 0 0 1 7.150952,-11.43717 9.5590582,9.5590572 0 0 1 11.468608,7.10042 9.5590582,9.5590572 0 0 1 -7.049764,11.49982"
       sodipodi:open="true" />
    <path
       sodipodi:nodetypes="cccssc"
       inkscape:connector-curvature="0"
       id="path1483-5-4-7-2-1"
       d="m 85.557404,128.53536 6.43101,16.72523 5.04257,-1.96969 c 0,0 -2.18564,-0.23983 -3.1894,-0.59507 -0.68359,-0.24192 -1.39425,-0.52777 -1.8773,-1.02782 -3.42944,-3.55016 -6.40692,-13.13264 -6.40692,-13.13264"
       style="fill:#000000;stroke:#000000;stroke-width:0.12863px;stroke-linecap:butt;stroke-linejoin:miter;stroke-opacity:1" />
    <path
       sodipodi:open="true"
       d="m 91.693063,162.14943 a 6.6263747,6.9047823 0 0 1 -7.906342,-5.20173 6.6263747,6.9047823 0 0 1 4.957066,-8.2614 6.6263747,6.9047823 0 0 1 7.95008,5.12884 6.6263747,6.9047823 0 0 1 -4.88692,8.30665"
       sodipodi:arc-type="arc"
       sodipodi:end="1.3331394"
       sodipodi:start="1.350786"
       sodipodi:ry="6.9047823"
       sodipodi:rx="6.6263747"
       sodipodi:cy="155.41109"
       sodipodi:cx="90.246925"
       sodipodi:type="arc"
       id="path1443-8-1-0"
       style="fill:#ffffff;stroke:#000000;stroke-width:0.176904;stroke-linecap:square" />
    <path
       style="fill:#ffffff;stroke:#000000;stroke-width:0.176904;stroke-linecap:square"
       id="path1443-8-2-60-9"
       sodipodi:type="arc"
       sodipodi:cx="115.2729"
       sodipodi:cy="155.57857"
       sodipodi:rx="6.6263747"
       sodipodi:ry="6.9047823"
       sodipodi:start="1.350786"
       sodipodi:end="1.3331394"
       sodipodi:arc-type="arc"
       d="m 116.71904,162.31691 a 6.6263747,6.9047823 0 0 1 -7.90634,-5.20173 6.6263747,6.9047823 0 0 1 4.95707,-8.2614 6.6263747,6.9047823 0 0 1 7.95008,5.12884 6.6263747,6.9047823 0 0 1 -4.88693,8.30665"
       sodipodi:open="true" />
    <path
       sodipodi:open="true"
       d="m 92.535303,131.20578 a 6.6263747,6.9047823 0 0 1 -7.906343,-5.20173 6.6263747,6.9047823 0 0 1 4.957067,-8.2614 6.6263747,6.9047823 0 0 1 7.95008,5.12884 6.6263747,6.9047823 0 0 1 -4.886921,8.30665"
       sodipodi:arc-type="arc"
       sodipodi:end="1.3331394"
       sodipodi:start="1.350786"
       sodipodi:ry="6.9047823"
       sodipodi:rx="6.6263747"
       sodipodi:cy="124.46744"
       sodipodi:cx="91.089165"
       sodipodi:type="arc"
       id="path1443-8-2-6-9-3"
       style="fill:#ffffff;stroke:#000000;stroke-width:0.176904;stroke-linecap:square" />
  </g>
</svg>
