<?xml version="1.0" encoding="UTF-8" standalone="no"?>
<svg
   xmlns:dc="http://purl.org/dc/elements/1.1/"
   xmlns:cc="http://creativecommons.org/ns#"
   xmlns:rdf="http://www.w3.org/1999/02/22-rdf-syntax-ns#"
   xmlns:svg="http://www.w3.org/2000/svg"
   xmlns="http://www.w3.org/2000/svg"
   xmlns:sodipodi="http://sodipodi.sourceforge.net/DTD/sodipodi-0.dtd"
   xmlns:inkscape="http://www.inkscape.org/namespaces/inkscape"
   width="122.48026mm"
   height="16.42893mm"
   viewBox="0 0 122.48026 16.42893"
   version="1.1"
   id="svg1783"
   inkscape:version="1.0rc1 (09960d6, 2020-04-09)"
   sodipodi:docname="RbDlogo_white.svg">
  <defs
     id="defs1777" />
  <sodipodi:namedview
     id="base"
     pagecolor="#ffffff"
     bordercolor="#666666"
     borderopacity="1.0"
     inkscape:pageopacity="0.0"
     inkscape:pageshadow="2"
     inkscape:zoom="1.349375"
     inkscape:cx="213.3022"
     inkscape:cy="44.126924"
     inkscape:document-units="mm"
     inkscape:current-layer="layer1"
     inkscape:document-rotation="0"
     showgrid="false"
     fit-margin-top="0"
     fit-margin-left="0"
     fit-margin-right="0"
     fit-margin-bottom="0"
     inkscape:window-width="1252"
     inkscape:window-height="1174"
     inkscape:window-x="0"
     inkscape:window-y="23"
     inkscape:window-maximized="0" />
  <metadata
     id="metadata1780">
    <rdf:RDF>
      <cc:Work
         rdf:about="">
        <dc:format>image/svg+xml</dc:format>
        <dc:type
           rdf:resource="http://purl.org/dc/dcmitype/StillImage" />
        <dc:title></dc:title>
      </cc:Work>
    </rdf:RDF>
  </metadata>
  <g
     inkscape:label="Layer 1"
     inkscape:groupmode="layer"
     id="layer1"
     transform="translate(-48.563793,-136.49142)">
    <text
       xml:space="preserve"
       style="font-style:normal;font-variant:normal;font-weight:normal;font-stretch:normal;font-size:11.28889999999999993px;line-height:1.25;font-family:'Agenda King';-inkscape-font-specification:'Agenda King, Normal';font-variant-ligatures:normal;font-variant-caps:normal;font-variant-numeric:normal;font-variant-east-asian:normal;stroke-width:0.264583;fill:#ffffff;"
       x="126.48244"
       y="148.30608"
       id="text428-8"><tspan
         sodipodi:role="line"
         id="tspan426-1"
         x="126.48244"
         y="148.30608"
         style="font-style:normal;font-variant:normal;font-weight:normal;font-stretch:normal;font-size:11.28889999999999993px;font-family:'Agenda King';-inkscape-font-specification:'Agenda King, Normal';font-variant-ligatures:normal;font-variant-caps:normal;font-variant-numeric:normal;font-variant-east-asian:normal;stroke-width:0.264583;fill:#ffffff;">by Diana</tspan></text>
    <text
       xml:space="preserve"
       style="font-style:normal;font-variant:normal;font-weight:normal;font-stretch:normal;font-size:11.28889999999999993px;line-height:1.25;font-family:'Robotic Cyborg';-inkscape-font-specification:'Robotic Cyborg, Normal';font-variant-ligatures:normal;font-variant-caps:normal;font-variant-numeric:normal;font-variant-east-asian:normal;stroke-width:0.264583;fill:#ffffff;"
       x="63.141815"
       y="148.44154"
       id="text432-3-2"><tspan
         sodipodi:role="line"
         id="tspan430-8-0"
         x="63.141815"
         y="148.44154"
         style="font-style:normal;font-variant:normal;font-weight:normal;font-stretch:normal;font-size:11.28889999999999993px;font-family:'Robotic Cyborg';-inkscape-font-specification:'Robotic Cyborg, Normal';font-variant-ligatures:normal;font-variant-caps:normal;font-variant-numeric:normal;font-variant-east-asian:normal;stroke-width:0.264583;fill:#ffffff;"
         dy="0 0 0 0 0 0 0 0">Robotics</tspan></text>
    <g
       transform="matrix(0.22564866,0,0,0.23413397,34.275957,108.68261)"
       id="g444-0-1">
      <path
         style="fill:#cccccc;fill-opacity:1;stroke:#000000;stroke-width:0.264583px;stroke-linecap:butt;stroke-linejoin:miter;stroke-opacity:1"
         d="m 85.544921,154.49983 16.856999,-5.02533 4.96452,-1.40105 V 128.3821 l -21.821519,1.98555 z"
         id="path434-8-5"
         inkscape:connector-curvature="0" />
      <path
         style="fill:#b3b3b3;fill-opacity:1;stroke:#000000;stroke-width:0.264583px;stroke-linecap:butt;stroke-linejoin:miter;stroke-opacity:1"
         d="m 85.544921,154.49983 -4.788506,-2.98218 -4.244094,-2.43152 -3.937039,-1.89463 v -20.34374 l 12.969639,3.51989 z"
         id="path436-1-8"
         inkscape:connector-curvature="0" />
      <path
         style="fill:#808080;fill-opacity:1;stroke:#000000;stroke-width:0.264583px;stroke-linecap:butt;stroke-linejoin:miter;stroke-opacity:1"
         d="m 93.590209,125.68641 -21.014927,1.16135 12.969639,3.51989 21.821519,-1.98555 z"
         id="path438-1-0"
         inkscape:connector-curvature="0" />
      <path
         style="fill:#b3b3b3;fill-opacity:1;stroke:#000000;stroke-width:0.264583px;stroke-linecap:butt;stroke-linejoin:miter;stroke-opacity:1"
         d="m 76.512321,149.08613 4.244094,2.43152 4.752565,31.44642 -22.005986,-10.68862 z"
         id="path440-8-5"
         inkscape:connector-curvature="0" />
      <path
         style="fill:#cccccc;fill-opacity:1;stroke:#000000;stroke-width:0.264583px;stroke-linecap:butt;stroke-linejoin:miter;stroke-opacity:1"
         d="m 113.48802,172.90419 -11.0861,-23.42969 -16.856999,5.02533 -4.788506,-2.98218 4.752565,31.44642 z"
         id="path442-7-1"
         inkscape:connector-curvature="0" />
    </g>
    <ellipse
       transform="matrix(-0.98948091,0.14466349,-0.13456133,-0.99090527,0,0)"
       cx="-35.466663"
       cy="-147.8102"
       rx="0.64202183"
       ry="1.1843927"
       id="ellipse446-6-3"
       style="fill:#000000;fill-opacity:1;stroke:#000000;stroke-width:0.103436;stroke-linecap:square;stroke-miterlimit:4;stroke-dasharray:none;stroke-opacity:1" />
    <ellipse
       style="fill:#000000;fill-opacity:1;stroke:#000000;stroke-width:0.103436;stroke-linecap:square;stroke-miterlimit:4;stroke-dasharray:none;stroke-opacity:1"
       id="ellipse448-1-4"
       ry="1.1843927"
       rx="0.64202183"
       cy="-147.91742"
       cx="-37.701756"
       transform="matrix(-0.98948091,0.14466349,-0.13456133,-0.99090527,0,0)" />
    <ellipse
       style="fill:#ffffff;fill-opacity:1;stroke:#000000;stroke-width:0.0482031;stroke-linecap:square;stroke-miterlimit:4;stroke-dasharray:none;stroke-opacity:1"
       id="ellipse450-8-7"
       ry="0.46806943"
       rx="0.35280907"
       cy="-138.96849"
       cx="-44.006069"
       transform="matrix(-0.99768576,-0.06799359,-0.09631653,-0.99535076,0,0)" />
    <ellipse
       transform="matrix(-0.99768576,-0.06799359,-0.09631653,-0.99535076,0,0)"
       cx="-41.660587"
       cy="-139.32269"
       rx="0.35280907"
       ry="0.46806943"
       id="ellipse452-8-2"
       style="fill:#ffffff;fill-opacity:1;stroke:#000000;stroke-width:0.0482031;stroke-linecap:square;stroke-miterlimit:4;stroke-dasharray:none;stroke-opacity:1" />
    <ellipse
       transform="matrix(-0.99556647,-0.09406059,-0.06963154,-0.99757278,0,0)"
       cx="-48.182846"
       cy="-136.58168"
       rx="0.10402276"
       ry="0.19048919"
       id="ellipse454-3-6"
       style="fill:#ffffff;fill-opacity:1;stroke:#000000;stroke-width:0.0166974;stroke-linecap:square;stroke-miterlimit:4;stroke-dasharray:none;stroke-opacity:1" />
    <ellipse
       style="fill:#ffffff;fill-opacity:1;stroke:#000000;stroke-width:0.0166974;stroke-linecap:square;stroke-miterlimit:4;stroke-dasharray:none;stroke-opacity:1"
       id="ellipse456-5-8"
       ry="0.19048919"
       rx="0.10402276"
       cy="-136.99698"
       cx="-45.839458"
       transform="matrix(-0.99556647,-0.09406059,-0.06963154,-0.99757278,0,0)" />
    <path
       sodipodi:nodetypes="ccccc"
       inkscape:connector-curvature="0"
       id="path458-6-0"
       d="m 55.12318,143.36704 0.422442,0.0538 0.933065,-0.12206 0.810487,-0.29165 0.153791,-0.17413"
       style="fill:none;stroke:#000000;stroke-width:0.060815px;stroke-linecap:butt;stroke-linejoin:miter;stroke-opacity:1" />
    <path
       inkscape:connector-curvature="0"
       id="path460-8-5"
       d="m 54.011995,145.32724 1.291323,4.15965 0.82876,-0.27998 -1.387691,-4.11964 z"
       style="fill:#000000;stroke:#000000;stroke-width:0.060815px;stroke-linecap:butt;stroke-linejoin:miter;stroke-opacity:1" />
    <path
       transform="matrix(0.9981382,-0.06099291,0.05666656,0.99839316,0,0)"
       d="m 46.430825,148.14381 a 2.4769702,2.1695423 0 0 1 2.392102,0.60446 2.4769702,2.1695423 0 0 1 0.584078,2.1198 2.4769702,2.1695423 0 0 1 -1.814024,1.49356 l -0.559694,-2.11343 z"
       sodipodi:arc-type="slice"
       sodipodi:end="1.3428688"
       sodipodi:start="4.4666994"
       sodipodi:ry="2.1695423"
       sodipodi:rx="2.4769702"
       sodipodi:cy="150.2482"
       sodipodi:cx="47.033287"
       sodipodi:type="arc"
       id="path462-8-6"
       style="fill:none;fill-opacity:1;stroke:#000000;stroke-width:0.0574633;stroke-linecap:square;stroke-miterlimit:4;stroke-dasharray:none;stroke-opacity:1" />
    <path
       style="fill:none;stroke:#000000;stroke-width:0.060815px;stroke-linecap:butt;stroke-linejoin:miter;stroke-opacity:1"
       d="m 54.739232,145.07362 1.392846,4.13329"
       id="path464-9-7"
       inkscape:connector-curvature="0" />
    <path
       style="fill:none;stroke:#000000;stroke-width:0.060815px;stroke-linecap:butt;stroke-linejoin:miter;stroke-opacity:1"
       d="m 55.997163,148.70696 0.107724,-0.0873 0.154201,-0.14 0.106013,-0.17 0.0771,-0.14 0.0771,-0.14"
       id="path466-9-1"
       inkscape:connector-curvature="0" />
    <path
       style="fill:#000000;stroke:#000000;stroke-width:0.060815px;stroke-linecap:butt;stroke-linejoin:miter;stroke-opacity:1"
       d="m 54.739231,145.07362 0.189882,0.5161 0.173476,0.01 0.192749,0.04 0.19275,0.05 0.125287,0.06 0.155299,0.10432 0.114331,0.0857 0.106117,0.0769 0.106128,0.0931 0.11565,0.13 0.125288,0.14 0.103185,0.17 0.06406,0.16329 0.04478,0.1767 0.03832,0.18 0.01904,0.19329 -0.0094,0.18001 -0.0094,0.13671 -0.02562,0.16659 -0.04773,0.1525 -0.07029,0.17042 -0.104376,0.17563 -0.114488,0.17801 -0.120699,0.15564 -0.106398,0.12846 0.141072,0.50683 0.133788,-0.0364 0.158795,-0.0594 0.14609,-0.0527 0.146089,-0.0791 0.114331,-0.0593 0.120685,-0.0791 0.11433,-0.0923 0.09528,-0.0725 0.120681,-0.11203 0.08257,-0.0791 0.08257,-0.0989 0.08893,-0.11204 0.06351,-0.11204 0.06352,-0.0857 0.05717,-0.11863 0.05717,-0.11863 0.05081,-0.14499 0.04446,-0.15818 0.0254,-0.12522 0.01904,-0.12523 0.0127,-0.14499 9e-6,-0.12523 -0.0127,-0.15158 -0.03176,-0.15818 -0.03811,-0.15816 -0.05081,-0.13841 -0.05082,-0.13181 -0.05717,-0.11863 -0.08257,-0.13181 -0.08257,-0.11864 -0.114332,-0.13839 -0.120684,-0.12523 -0.171496,-0.15158 -0.14609,-0.10545 -0.146091,-0.0857 -0.165145,-0.0857 -0.158794,-0.0725 -0.152442,-0.0594 -0.19055,-0.0593 -0.146091,-0.0264 -0.190553,-0.0329 -0.177847,-0.007 -0.17785,-0.007 -0.165145,0.007 -0.14609,0.0198 -0.158791,0.0198 -0.127036,0.0263 z"
       id="path468-3-1"
       inkscape:connector-curvature="0"
       sodipodi:nodetypes="ccccccccccccccccccccccccccccccccccccccccccccccccccccccccccccccccccccccccccc" />
    <path
       style="fill:none;stroke:#000000;stroke-width:0.060815px;stroke-linecap:butt;stroke-linejoin:miter;stroke-opacity:1"
       d="m 57.415334,145.77665 0.114333,0.13839"
       id="path470-7-4"
       inkscape:connector-curvature="0" />
  </g>
</svg>
